<?xml version="1.0" encoding="UTF-8" standalone="no"?>
<!-- Created with Inkscape (http://www.inkscape.org/) -->

<svg
   width="152.89099mm"
   height="157.14651mm"
   viewBox="0 0 152.89099 157.14652"
   version="1.1"
   id="svg1"
   xml:space="preserve"
   inkscape:version="1.3.2 (091e20e, 2023-11-25, custom)"
   sodipodi:docname="ajout_transaction.svg"
   xmlns:inkscape="http://www.inkscape.org/namespaces/inkscape"
   xmlns:sodipodi="http://sodipodi.sourceforge.net/DTD/sodipodi-0.dtd"
   xmlns="http://www.w3.org/2000/svg"
   xmlns:svg="http://www.w3.org/2000/svg"><sodipodi:namedview
     id="namedview1"
     pagecolor="#ffffff"
     bordercolor="#000000"
     borderopacity="0.25"
     inkscape:showpageshadow="2"
     inkscape:pageopacity="0.0"
     inkscape:pagecheckerboard="0"
     inkscape:deskcolor="#d1d1d1"
     inkscape:document-units="mm"
     inkscape:clip-to-page="false"
     inkscape:zoom="1.0449705"
     inkscape:cx="289.48185"
     inkscape:cy="386.61377"
     inkscape:window-width="1637"
     inkscape:window-height="1356"
     inkscape:window-x="6033"
     inkscape:window-y="3"
     inkscape:window-maximized="0"
     inkscape:current-layer="layer1" /><defs
     id="defs1" /><g
     inkscape:label="Calque 1"
     inkscape:groupmode="layer"
     id="layer1"
     transform="translate(-28.429955,-66.262302)"><path
       style="fill:#000000"
       d="M 91.273323,222.29321 C 68.689798,218.10486 48.844793,203.32904 37.625225,182.34894 23.372928,155.69777 25.861523,121.96221 43.887329,97.459461 61.922224,72.944352 94.350658,61.016478 122.73815,68.456436 c 28.66601,7.512951 49.02887,28.334702 56.99715,58.281604 1.30724,4.91295 1.58333,8.06534 1.58563,18.10435 0.002,10.74317 -0.22526,13.03205 -1.95973,19.6986 -9.1613,35.21195 -39.68593,59.18499 -74.95178,58.86466 -4.128,-0.0375 -10.039246,-0.53809 -13.136097,-1.11244 z m 31.555657,-7.52803 c 12.45671,-3.23661 21.09179,-8.11982 30.43709,-17.21243 7.29932,-7.10196 11.59227,-13.02442 15.59983,-21.52122 3.70775,-7.86113 6.01034,-16.19859 6.73463,-24.38546 0.41706,-4.71407 0.31788,-5.66409 -0.59128,-5.66409 -1.72699,0 -9.99221,2.9162 -17.43195,6.15049 -8.14812,3.54223 -8.97738,3.57682 -26.18341,1.09205 -7.13905,-1.03096 -15.14207,-2.14214 -17.78449,-2.46927 -4.34012,-0.53731 -4.87339,-0.796 -5.51818,-2.67685 -0.9597,-2.79944 0.97778,-6.92785 4.19383,-8.9363 2.74918,-1.71688 9.63044,-1.99109 18.92732,-0.75423 8.61702,1.14641 10.14721,-0.0321 10.99067,-8.46464 0.6021,-6.01946 -0.69097,-12.91914 -2.91822,-15.57133 -1.91733,-2.28313 -6.52473,-2.97457 -25.97266,-3.89776 l -11.77711,-0.55905 9.92282,-3.96517 c 10.77508,-4.30574 16.05422,-5.84044 24.1215,-7.012354 6.39021,-0.928295 8.56039,-0.359107 13.74194,3.604174 2.17431,1.6631 5.32697,3.72956 7.00591,4.59214 3.4582,1.7767 9.7789,3.56647 10.38886,2.94171 0.79322,-0.81247 -4.98047,-8.98769 -10.60979,-15.022864 -9.73344,-10.435179 -22.00448,-17.639854 -35.66217,-20.938264 -7.38884,-1.784448 -22.736096,-1.792935 -30.215629,-0.01671 -13.516045,3.209764 -24.415105,9.182459 -34.005727,18.635171 -6.556177,6.461899 -10.822349,12.608687 -14.903638,21.473457 -3.938353,8.5543 -5.576864,14.71166 -6.338249,23.8185 -2.521147,30.15516 12.11683,57.38457 38.292976,71.23221 15.246914,8.06588 32.416437,9.98121 49.555127,5.52809 z M 54.123974,178.11132 c -1.091996,-0.17112 -2.312474,-0.71818 -2.712172,-1.21569 -0.411009,-0.51158 -0.837376,-8.5784 -0.981427,-18.5685 l -0.254704,-17.66394 27.708384,3.6e-4 c 25.043075,3.3e-4 27.664775,0.11677 27.255005,1.21053 -1.1467,3.06079 -1.26531,4.98712 -0.46081,7.48395 1.00408,3.11627 3.24573,4.9911 5.92712,4.95723 1.03108,-0.013 10.00296,1.09201 19.93752,2.45563 l 18.06284,2.47931 -0.276,8.25959 c -0.25291,7.56841 -0.42134,8.38013 -2.01263,9.69996 -1.665,1.38096 -3.56088,1.43567 -45.97214,1.32653 -24.329548,-0.0626 -45.128989,-0.25384 -46.220986,-0.42496 z m -3.577443,-54.44817 c 0,-5.70262 0.244955,-7.33244 1.227469,-8.16704 1.009698,-0.85769 8.082777,-1.02208 39.86739,-0.92661 21.25196,0.0638 40.13339,0.41369 41.95874,0.77744 3.03546,0.60491 3.39474,0.91934 4.20789,3.68256 0.48898,1.66164 0.9147,4.98696 0.94605,7.38959 l 0.057,4.36841 H 94.678804 50.546531 Z"
       id="path1" /></g></svg>
