<?xml version="1.0" encoding="UTF-8" standalone="no"?>
<!-- Created with Inkscape (http://www.inkscape.org/) -->

<svg
   width="192.30167mm"
   height="208.06476mm"
   viewBox="0 0 192.30167 208.06476"
   version="1.1"
   id="svg1"
   xml:space="preserve"
   inkscape:version="1.3.2 (091e20e, 2023-11-25, custom)"
   sodipodi:docname="budget.svg"
   xmlns:inkscape="http://www.inkscape.org/namespaces/inkscape"
   xmlns:sodipodi="http://sodipodi.sourceforge.net/DTD/sodipodi-0.dtd"
   xmlns="http://www.w3.org/2000/svg"
   xmlns:svg="http://www.w3.org/2000/svg"><sodipodi:namedview
     id="namedview1"
     pagecolor="#ffffff"
     bordercolor="#000000"
     borderopacity="0.25"
     inkscape:showpageshadow="2"
     inkscape:pageopacity="0.0"
     inkscape:pagecheckerboard="0"
     inkscape:deskcolor="#d1d1d1"
     inkscape:document-units="mm"
     inkscape:clip-to-page="false"
     inkscape:zoom="1.0449705"
     inkscape:cx="361.2542"
     inkscape:cy="484.22418"
     inkscape:window-width="1637"
     inkscape:window-height="1356"
     inkscape:window-x="6033"
     inkscape:window-y="3"
     inkscape:window-maximized="0"
     inkscape:current-layer="layer1" /><defs
     id="defs1" /><g
     inkscape:label="Calque 1"
     inkscape:groupmode="layer"
     id="layer1"
     transform="translate(-9.3907589,-40.428401)"><path
       style="fill:#000000;stroke-width:1.48604"
       d="m 12.586265,240.505 v -7.98815 h 92.833995 92.83401 v 7.98815 7.98816 H 105.42026 12.586265 Z m 20.755569,-24.98858 v -7.98816 h 72.078426 72.07845 v 7.98816 7.98816 H 105.42026 33.341834 Z m 64.530965,-13.9435 C 71.592452,197.06221 53.189447,171.79065 55.272824,143.0734 56.294019,128.99726 62.281839,115.91657 71.927855,106.68966 79.55076,99.397971 88.05532,95.067904 97.964646,93.433118 126.72143,88.689024 153.25263,111.5443 155.56322,143.05143 c 1.52519,20.79746 -7.66766,40.34059 -24.10414,51.24316 -9.71725,6.4456 -22.41109,9.1964 -33.586281,7.27833 z m 9.729591,-15.22793 0.1066,-4.59247 1.40293,-0.24428 c 9.83093,-1.71179 14.80166,-5.59566 17.16191,-13.40946 0.60138,-1.99091 0.78047,-3.69717 0.80611,-7.68015 0.0309,-4.8091 -0.0328,-5.2757 -1.04848,-7.66961 -2.07059,-4.88047 -5.58231,-7.50976 -14.10146,-10.55801 l -4.24547,-1.51907 v -11.42841 -11.42841 h 1.06491 c 1.82211,0 4.47071,1.21924 5.88301,2.70814 1.65182,1.74143 2.48622,3.40806 3.05359,6.09931 l 0.43183,2.04825 3.8855,0.11721 3.88551,0.1172 -0.27199,-2.36316 c -0.98651,-8.57095 -6.4932,-14.30978 -15.1687,-15.80817 l -2.73489,-0.47237 -0.10869,-3.0849 -0.10868,-3.08491 -1.965,-0.12324 -1.965,-0.12325 -0.11057,3.17623 -0.11057,3.1762 -3.01901,0.47958 c -6.091733,0.96769 -9.508132,3.30693 -12.795803,8.76144 -3.175127,5.26781 -3.556839,12.55179 -0.9603,18.32504 2.248938,5.00041 7.780895,8.66508 15.926003,10.55027 l 1.03779,0.2402 v 12.94265 12.94266 l -1.79253,-0.2709 c -2.795177,-0.42245 -6.37182,-2.49012 -7.668495,-4.43323 -1.321743,-1.98067 -2.183963,-4.88018 -2.49647,-8.39525 l -0.227626,-2.56032 h -3.962114 -3.962122 l 0.247937,3.17478 c 0.90239,11.55496 6.216841,17.6941 16.76681,19.36863 l 3.09461,0.49119 v 4.68526 4.68524 l 1.98121,-0.12386 1.98121,-0.12387 z m 0.0822,-24.1087 c 0,-6.85769 0.076,-12.46854 0.16898,-12.46854 0.0929,0 1.65912,0.58533 3.48045,1.3007 5.76428,2.26415 8.43719,6.36964 7.94936,12.20981 -0.52483,6.28268 -4.16664,10.29173 -10.18362,11.21048 l -1.41517,0.21609 z m -6.79272,-23.09367 c -3.342463,-1.11057 -6.685907,-3.97481 -7.614627,-6.52324 -0.216678,-0.59454 -0.404614,-2.27924 -0.417618,-3.74374 -0.05488,-6.1713 3.583945,-10.59323 9.164355,-11.13671 l 1.32082,-0.12867 0.1006,10.95811 0.10061,10.95812 -0.85525,-0.0352 c -0.47039,-0.0193 -1.27981,-0.17628 -1.79871,-0.34868 z M 9.3974544,116.22465 C 9.5946322,116.02581 31.280212,98.890325 57.587632,78.145767 l 47.831688,-37.717366 48.13655,37.976473 48.13656,37.976476 -11.35517,0.10838 -11.35517,0.10838 -36.61956,-28.886282 C 122.22177,71.824369 105.59776,58.825549 105.42026,58.825549 c -0.17748,0 -16.798064,12.99611 -36.934607,28.880254 L 31.873742,116.58605 H 20.456345 c -6.617435,0 -11.2666782,-0.15205 -11.0588906,-0.36154 z"
       id="path1" /></g></svg>
