<?xml version="1.0" encoding="UTF-8" standalone="no"?>
<!-- Created with Inkscape (http://www.inkscape.org/) -->

<svg
   width="172.2446mm"
   height="175.35367mm"
   viewBox="0 0 172.2446 175.35367"
   version="1.1"
   id="svg1"
   xml:space="preserve"
   inkscape:version="1.3.2 (091e20e, 2023-11-25, custom)"
   sodipodi:docname="compte.svg"
   xmlns:inkscape="http://www.inkscape.org/namespaces/inkscape"
   xmlns:sodipodi="http://sodipodi.sourceforge.net/DTD/sodipodi-0.dtd"
   xmlns="http://www.w3.org/2000/svg"
   xmlns:svg="http://www.w3.org/2000/svg"><sodipodi:namedview
     id="namedview1"
     pagecolor="#ffffff"
     bordercolor="#000000"
     borderopacity="0.25"
     inkscape:showpageshadow="2"
     inkscape:pageopacity="0.0"
     inkscape:pagecheckerboard="0"
     inkscape:deskcolor="#d1d1d1"
     inkscape:document-units="mm"
     inkscape:clip-to-page="false"
     inkscape:zoom="1.0449705"
     inkscape:cx="322.97561"
     inkscape:cy="411.49485"
     inkscape:window-width="1637"
     inkscape:window-height="1356"
     inkscape:window-x="6033"
     inkscape:window-y="3"
     inkscape:window-maximized="0"
     inkscape:current-layer="layer1" /><defs
     id="defs1" /><g
     inkscape:label="Calque 1"
     inkscape:groupmode="layer"
     id="layer1"
     transform="translate(-19.482308,-59.768229)"><path
       style="fill:currentColor"
       d="M 94.673128,234.99283 C 90.21381,234.40416 80.457435,231.90521 75.93176,230.19252 47.411267,219.39922 27.241015,195.52435 20.645924,164.75247 c -1.011857,-4.7212 -1.163616,-6.98378 -1.163616,-17.34837 0,-10.36458 0.151759,-12.62716 1.163616,-17.34836 7.579506,-35.365043 33.156091,-61.390833 67.910734,-69.103459 4.639713,-1.029628 6.863239,-1.184052 17.048932,-1.184052 10.23957,0 12.40112,0.151727 17.17959,1.205903 34.19835,7.544487 59.45843,32.855911 67.48714,67.624318 1.39457,6.03923 1.46718,6.97882 1.45328,18.80565 -0.0128,10.86465 -0.1608,13.11582 -1.16324,17.69032 -3.83365,17.49448 -11.73047,32.28545 -23.78703,44.55376 -7.20054,7.32701 -13.61978,11.99197 -22.90612,16.64625 -7.98628,4.0027 -11.18216,5.17277 -19.78255,7.24275 -5.03994,1.21303 -7.0373,1.39734 -16.65899,1.53723 -6.01285,0.0874 -11.752399,0.0507 -12.754542,-0.0816 z m 28.112052,-7.76547 c 7.35913,-1.77582 11.24851,-3.15649 17.49478,-6.21041 21.36685,-10.44666 37.05599,-29.84178 43.04921,-53.21798 2.07586,-8.09677 2.62034,-13.71473 2.28468,-23.57329 -0.53655,-15.75906 -4.77556,-29.15116 -13.42498,-42.41287 C 167.7779,95.049683 157.04464,84.150921 150.37663,79.664221 137.17533,70.781465 124.2228,66.55562 108.46885,65.991533 92.445183,65.417789 78.166734,69.045571 65.071317,77.01772 c -24.812465,15.105182 -39.647633,41.4765 -39.634063,70.45437 0.01065,22.74645 8.551499,42.84681 25.084837,59.03563 12.361455,12.10386 27.258131,19.36137 45.452521,22.144 0.85898,0.13137 6.012858,0.16141 11.453058,0.0668 8.33425,-0.145 10.75173,-0.37972 15.35751,-1.49112 z m -69.049404,-39.6531 c -2.185102,-1.07662 -2.271913,-2.09361 -2.271913,-26.61535 0,-22.94885 0.02427,-23.50832 1.078972,-24.87271 l 1.078972,-1.39578 h 43.871685 c 41.841018,0 43.911558,0.0448 44.733258,0.96875 0.77576,0.87226 0.86157,3.4275 0.86157,25.65379 v 24.68503 l -1.37169,1.09793 c -1.36326,1.09117 -1.63442,1.0977 -44.120295,1.06207 -28.306919,-0.0238 -43.12426,-0.22094 -43.860559,-0.58373 z m 77.802324,-14.34549 -0.16313,-1.72164 -33.968725,-0.13627 -33.96873,-0.13627 v 1.85791 1.85792 H 97.569377 131.70123 Z M 74.254942,156.01233 74.4002,148.99332 h -7.043123 -7.043123 v 7.16682 7.16682 l 6.897864,-0.14781 6.897865,-0.14781 z m 45.880568,-10.19744 c 0.61995,0 1.08788,0.34179 1.08788,0.79461 0,0.44145 0.46275,0.7946 1.04119,0.7946 1.26192,0 1.26159,-0.008 -0.16136,-3.97302 -0.84482,-2.35407 -1.4233,-3.21951 -2.23041,-3.33686 -0.91473,-0.13299 -1.29938,0.42003 -2.39501,3.44329 -0.90763,2.50452 -1.13064,3.72183 -0.73205,3.99598 0.31755,0.21842 0.95869,-0.0769 1.43753,-0.66217 0.47539,-0.58103 1.35389,-1.05643 1.95223,-1.05643 z m -0.98652,-1.98651 c 0.004,-0.21851 0.20615,-0.71543 0.44837,-1.10425 0.33483,-0.53749 0.50842,-0.44226 0.72418,0.3973 0.18828,0.73262 0.0374,1.10425 -0.44837,1.10425 -0.40268,0 -0.72856,-0.17878 -0.72418,-0.3973 z m -3.67286,2.80654 c 0.38596,-0.47321 0.47328,-1.23759 0.22694,-1.98651 -0.22022,-0.66953 -0.33578,-1.78605 -0.25679,-2.48115 0.17861,-1.57174 -0.69053,-2.16092 -3.20312,-2.17136 l -1.95223,-0.008 v 3.70816 3.70815 h 2.27893 c 1.35714,0 2.53268,-0.31112 2.90627,-0.76918 z m -3.62342,-1.65347 c 0,-0.49331 0.3542,-0.76355 0.8679,-0.66217 1.30605,0.25774 1.48538,1.49561 0.21667,1.49561 -0.63946,0 -1.08457,-0.34204 -1.08457,-0.83344 z m 0,-2.87471 c 0,-0.29136 0.46854,-0.52974 1.04119,-0.52974 0.57265,0 1.04119,0.23838 1.04119,0.52974 0,0.29135 -0.46854,0.52973 -1.04119,0.52973 -0.57265,0 -1.04119,-0.23838 -1.04119,-0.52973 z m 14.06095,3.04598 0.005,-2.25138 1.32606,2.25138 c 0.9814,1.66622 1.65668,2.25138 2.59805,2.25138 1.22776,0 1.27197,-0.12888 1.27197,-3.70815 0,-3.355 -0.0992,-3.70816 -1.04118,-3.70816 -0.87468,0 -1.04444,0.36005 -1.06151,2.25138 l -0.0203,2.25138 -1.35008,-2.27903 c -1.00769,-1.70106 -1.62967,-2.23844 -2.45251,-2.11895 -0.98556,0.14312 -1.11392,0.53912 -1.21092,3.73581 -0.0982,3.23485 -0.0113,3.57572 0.91103,3.57572 0.85163,0 1.02036,-0.37079 1.02447,-2.25138 z m 8.3433,0.79461 0.0187,-1.45678 1.17217,1.45678 c 0.64469,0.80123 1.58033,1.45677 2.07919,1.45677 0.81998,0 0.79657,-0.1953 -0.24393,-2.03495 l -1.15095,-2.03495 1.17086,-1.67321 c 1.13493,-1.62185 1.13915,-1.6732 0.13765,-1.6732 -0.56827,0 -1.51387,0.65555 -2.10134,1.45678 l -1.06811,1.45677 -0.0165,-1.45677 c -0.0124,-1.09803 -0.2729,-1.45678 -1.05768,-1.45678 -0.94203,0 -1.04119,0.35316 -1.04119,3.70816 0,3.355 0.0992,3.70815 1.04119,3.70815 0.78424,0 1.0458,-0.3595 1.05991,-1.45677 z m 12.47552,-6.08487 c 0,-0.81223 2.13835,-3.3652 6.79995,-8.11846 7.10545,-7.24516 7.78121,-8.43269 6.32436,-11.11407 -0.30988,-0.57036 -4.9128,-5.4451 -10.22871,-10.83277 l -9.66529,-9.79576 -15.22963,15.49043 -15.22963,15.49043 h -8.32363 -8.323643 l 19.416253,-19.76254 19.41626,-19.762536 -2.85885,-2.751273 c -2.41683,-2.32588 -3.16588,-2.751273 -4.84454,-2.751273 -1.92238,0 -2.69091,0.717761 -24.106316,22.513812 -16.065675,16.35123 -22.441884,22.51381 -23.294265,22.51381 -0.645498,0 -1.173632,-0.18505 -1.173632,-0.41123 0,-0.22617 10.132052,-10.69651 22.515671,-23.26741 24.040782,-24.404368 23.737972,-24.151554 27.831152,-23.236751 1.05389,0.235538 6.57714,5.509285 18.79648,17.947401 18.45423,18.78461 18.55783,18.91988 17.56715,22.93638 -0.33939,1.37599 -14.02033,16.09661 -14.95974,16.09661 -0.23617,0 -0.4294,-0.53316 -0.4294,-1.1848 z"
       id="path1" /></g></svg>
