<?xml version="1.0" encoding="UTF-8" standalone="no"?>
<!-- Created with Inkscape (http://www.inkscape.org/) -->

<svg
   width="134.73186mm"
   height="92.740616mm"
   viewBox="0 0 134.73186 92.740619"
   version="1.1"
   id="svg1"
   xml:space="preserve"
   inkscape:version="1.3.2 (091e20e, 2023-11-25, custom)"
   sodipodi:docname="gerer_categorie.svg"
   xmlns:inkscape="http://www.inkscape.org/namespaces/inkscape"
   xmlns:sodipodi="http://sodipodi.sourceforge.net/DTD/sodipodi-0.dtd"
   xmlns="http://www.w3.org/2000/svg"
   xmlns:svg="http://www.w3.org/2000/svg"><sodipodi:namedview
     id="namedview1"
     pagecolor="#ffffff"
     bordercolor="#000000"
     borderopacity="0.25"
     inkscape:showpageshadow="2"
     inkscape:pageopacity="0.0"
     inkscape:pagecheckerboard="0"
     inkscape:deskcolor="#d1d1d1"
     inkscape:document-units="mm"
     inkscape:clip-to-page="false"
     inkscape:zoom="1.0449705"
     inkscape:cx="255.03111"
     inkscape:cy="251.68174"
     inkscape:window-width="1637"
     inkscape:window-height="1356"
     inkscape:window-x="6033"
     inkscape:window-y="3"
     inkscape:window-maximized="0"
     inkscape:current-layer="layer1" /><defs
     id="defs1" /><g
     inkscape:label="Calque 1"
     inkscape:groupmode="layer"
     id="layer1"
     transform="translate(-37.656089,-101.87665)"><path
       style="fill:#000000"
       d="m 43.62628,194.05867 c -1.883129,-0.65096 -3.168848,-1.6392 -4.237642,-3.25717 -0.762705,-1.15461 -1.603364,-3.21275 -1.378698,-3.37539 0.05916,-0.0428 11.964524,-7.58022 26.456369,-16.74975 l 26.348808,-16.67188 6.36236,4.18234 c 3.625783,2.38343 6.791683,4.25201 7.360503,4.34432 1.32361,0.21479 2.46041,-0.38948 9.18287,-4.88117 l 5.49124,-3.66903 23.28115,14.68688 c 12.80464,8.07778 24.7,15.57648 26.43413,16.66376 2.41058,1.51141 3.15138,2.13151 3.14622,2.63356 -0.0122,1.19039 -1.10849,3.09704 -2.53226,4.40427 -2.65037,2.43343 2.57329,2.25196 -64.49823,2.2407 -56.317026,-0.009 -59.943108,-0.042 -61.41682,-0.55144 z m -5.970191,-45.90812 v -29.24361 l 0.845919,0.59277 c 0.465256,0.32602 10.466328,6.92579 22.224606,14.66615 11.758277,7.74036 21.558227,14.24263 21.777666,14.44948 0.319566,0.30123 -4.07145,3.2028 -22.060398,14.57746 -12.352658,7.81075 -22.533271,14.20136 -22.623585,14.20136 -0.09031,0 -0.164208,-13.15962 -0.164208,-29.24361 z m 112.027051,15.1025 c -12.23387,-7.75462 -22.2496,-14.2165 -22.2572,-14.35973 -0.008,-0.14322 5.23684,-3.72099 11.65431,-7.95059 6.41747,-4.22959 16.53703,-10.90341 22.48791,-14.83071 l 10.81979,-7.14054 v 29.21134 c 0,16.06624 -0.10382,29.20194 -0.2307,29.19044 -0.12689,-0.0115 -10.24024,-6.36559 -22.47411,-14.12021 z M 71.492256,131.12301 C 53.142663,119.0329 38.077163,108.9844 38.013365,108.793 c -0.234797,-0.70439 0.945664,-3.0718 2.150986,-4.3138 0.682357,-0.70313 1.885193,-1.57634 2.672969,-1.94048 l 1.43232,-0.66207 h 60.75239 60.75237 l 1.38423,0.65041 c 0.76133,0.35772 1.89502,1.16842 2.51931,1.80155 1.11424,1.13002 2.4024,3.42563 2.4024,4.28129 0,0.36792 -65.45412,43.81551 -66.76788,44.31964 -0.28179,0.10813 -13.262183,-8.26134 -33.820204,-21.80653 z"
       id="path1" /></g></svg>
