<?xml version="1.0" encoding="UTF-8" standalone="no"?>
<!-- Created with Inkscape (http://www.inkscape.org/) -->

<svg
   width="77.258354mm"
   height="87.312538mm"
   viewBox="0 0 77.258356 87.312541"
   version="1.1"
   id="svg1"
   xml:space="preserve"
   inkscape:version="1.3.2 (091e20e, 2023-11-25, custom)"
   sodipodi:docname="transfert_argent.svg"
   xmlns:inkscape="http://www.inkscape.org/namespaces/inkscape"
   xmlns:sodipodi="http://sodipodi.sourceforge.net/DTD/sodipodi-0.dtd"
   xmlns="http://www.w3.org/2000/svg"
   xmlns:svg="http://www.w3.org/2000/svg"><sodipodi:namedview
     id="namedview1"
     pagecolor="#ffffff"
     bordercolor="#000000"
     borderopacity="0.25"
     inkscape:showpageshadow="2"
     inkscape:pageopacity="0.0"
     inkscape:pagecheckerboard="0"
     inkscape:deskcolor="#d1d1d1"
     inkscape:document-units="mm"
     inkscape:clip-to-page="false"
     inkscape:zoom="1.0449705"
     inkscape:cx="129.66873"
     inkscape:cy="238.28423"
     inkscape:window-width="1637"
     inkscape:window-height="1356"
     inkscape:window-x="6033"
     inkscape:window-y="3"
     inkscape:window-maximized="0"
     inkscape:current-layer="layer1" /><defs
     id="defs1" /><g
     inkscape:label="Calque 1"
     inkscape:groupmode="layer"
     id="layer1"
     transform="translate(-70.934856,-105.31501)"><path
       style="fill:#000000"
       d="m 135.5227,192.15352 c -0.13952,-0.26071 -0.24402,-0.64767 -0.23221,-0.8599 0.0118,-0.21223 0.003,-1.07049 -0.0202,-1.90723 l -0.0417,-1.52136 h -30.57677 c -20.571364,0 -30.744231,-0.0896 -31.08854,-0.27389 -0.49661,-0.26578 -0.511773,-0.71233 -0.511773,-15.07194 0,-14.35961 0.01516,-14.80616 0.511773,-15.07194 0.281475,-0.15064 1.939845,-0.27389 3.685268,-0.27389 2.532218,0 3.257512,0.084 3.589269,0.41577 0.36408,0.36408 0.415774,1.72811 0.415774,10.9709 0,10.18159 0.0182,10.56486 0.514153,10.83029 0.348577,0.18655 9.051085,0.25346 27.023456,0.20775 l 26.5093,-0.0674 -0.003,-2.51354 c -0.003,-2.73567 0.20132,-3.43959 0.9998,-3.43959 0.61171,0 11.89591,8.87986 11.89591,9.36122 0,0.17998 -0.14883,0.51403 -0.33073,0.74234 -0.75554,0.94831 -11.10226,8.94644 -11.57349,8.94644 -0.28192,0 -0.62674,-0.2133 -0.76627,-0.47401 z m -29.97292,-18.97186 c -6.241471,-1.05044 -11.913648,-4.54443 -15.679332,-9.65829 -9.140585,-12.41307 -4.925472,-29.58646 8.977944,-36.57833 9.234648,-4.64399 20.583648,-2.73675 28.031138,4.71073 4.00017,4.00017 6.3291,8.85407 7.07257,14.74043 0.88826,7.03283 -1.88413,14.79766 -7.12841,19.96507 -5.68015,5.59688 -13.55076,8.12019 -21.27391,6.82039 z m 9.24948,-4.65352 c 3.99406,-1.01549 8.24498,-3.86198 10.76242,-7.2067 2.86877,-3.81151 4.18011,-7.68588 4.18011,-12.35016 0,-3.47513 -0.52604,-5.75559 -2.04457,-8.86354 -2.00012,-4.09359 -5.18672,-7.28545 -9.36397,-9.37945 -5.21877,-2.61608 -12.31969,-2.61608 -17.53846,0 -4.177256,2.094 -7.363849,5.28586 -9.363968,9.37945 -1.518537,3.10795 -2.044576,5.38841 -2.044576,8.86354 0,3.47513 0.526039,5.75559 2.044576,8.86354 4.277627,8.75492 13.819358,13.12118 23.368438,10.69332 z m -9.46857,-2.84629 c -2.26551,-0.64568 -3.35432,-1.12468 -5.11137,-2.24864 -3.168508,-2.02688 -5.873003,-5.56729 -7.106138,-9.30255 -0.883178,-2.67522 -0.883987,-7.65348 -0.0017,-10.31875 1.767382,-5.33889 5.954246,-9.52576 11.293138,-11.29314 2.66527,-0.88231 7.64353,-0.8815 10.31875,0.002 5.33501,1.76127 9.53019,5.95644 11.29146,11.29146 0.88317,2.67521 0.88398,7.65347 0.002,10.31875 -1.74911,5.28371 -5.9414,9.50951 -11.16084,11.25006 -2.47118,0.82408 -7.16902,0.9726 -9.525,0.30113 z m 5.1714,-3.86625 c 0.38705,-0.38705 0.64943,-0.95545 0.64943,-1.40689 0,-0.68749 0.13642,-0.80046 1.47702,-1.22305 1.57145,-0.49535 3.32535,-1.86861 3.96407,-3.10375 0.20886,-0.40389 0.37974,-1.39985 0.37974,-2.21324 0,-3.40696 -2.3116,-5.4671 -7.27604,-6.48452 -1.94394,-0.3984 -2.82793,-0.83448 -3.54851,-1.75055 -0.68288,-0.86815 -0.69737,-1.58092 -0.0536,-2.63662 0.71997,-1.18067 2.16228,-1.78481 3.91418,-1.63953 1.65409,0.13717 2.53302,0.69263 3.60803,2.28017 0.78125,1.15372 1.55154,1.4068 2.34237,0.7696 0.66743,-0.53777 0.7291,-1.11197 0.23715,-2.20795 -0.59963,-1.33585 -2.25582,-2.81824 -3.81314,-3.41299 -1.07544,-0.41071 -1.23126,-0.56765 -1.23126,-1.24005 0,-0.76574 -0.99988,-2.0687 -1.5875,-2.0687 -0.58762,0 -1.5875,1.30296 -1.5875,2.0687 0,0.67124 -0.15604,0.82942 -1.21844,1.23515 -2.5009,0.95511 -4.0562,3.05897 -4.06742,5.50205 -0.0147,3.20837 2.08291,5.11819 6.74107,6.13746 2.48719,0.54423 3.32618,0.93271 4.07768,1.88808 1.59206,2.02398 -0.49698,4.33523 -3.91844,4.33523 -2.10483,0 -3.99759,-1.18047 -4.54312,-2.83344 -0.38148,-1.15588 -1.36776,-1.59277 -2.26642,-1.00395 -2.01166,1.31809 0.99662,5.75118 4.46749,6.58342 0.59504,0.14268 0.7276,0.32036 0.7276,0.9752 0,0.79605 0.98561,2.0996 1.5875,2.0996 0.15875,0 0.58088,-0.29224 0.93807,-0.64943 z m 27.78812,-21.46217 c -0.36408,-0.36408 -0.41577,-1.72811 -0.41577,-10.9709 0,-10.1816 -0.0182,-10.56487 -0.51416,-10.8303 -0.34857,-0.18655 -9.05264,-0.25345 -27.02851,-0.20774 l -26.514372,0.0674 0.0192,2.50556 c 0.02074,2.70764 -0.19513,3.44756 -1.005837,3.44756 -0.734261,0 -11.895905,-8.91229 -11.895905,-9.49858 0,-0.58069 11.18468,-9.55142 11.908684,-9.55142 0.530401,0 1.03087,0.67161 0.994012,1.33392 -0.01181,0.21223 -0.0027,1.07048 0.02021,1.90723 l 0.04168,1.52135 h 30.576768 c 20.57136,0 30.74423,0.0896 31.08854,0.2739 0.49661,0.26577 0.51177,0.71233 0.51177,15.07194 0,14.3596 -0.0152,14.80616 -0.51177,15.07194 -0.28148,0.15064 -1.93985,0.27389 -3.68527,0.27389 -2.53222,0 -3.25751,-0.084 -3.58927,-0.41577 z"
       id="path1" /></g></svg>
